    <svg
      width="318"
      height="56"
      viewBox="0 0 318 56"
      fill="none"
      xmlns="http://www.w3.org/2000/svg"
    >
      <rect width="318" height="56" rx="8" fill="black"></rect>
      <path
        d="M105.145 20.3497C104.714 20.3497 104.31 20.4194 103.934 20.5586C103.558 20.6897 103.217 20.8248 102.911 20.9641C102.606 21.1033 102.339 21.1729 102.112 21.1729C101.877 21.1729 101.614 21.1115 101.324 20.9886C101.035 20.8576 100.721 20.7265 100.384 20.5955C100.055 20.4644 99.6984 20.3989 99.3144 20.3989C98.6013 20.3989 97.9156 20.6037 97.2573 21.0132C96.5991 21.4146 96.0583 22.0125 95.6352 22.8071C95.212 23.6016 95.0004 24.5804 95.0004 25.7436C95.0004 26.833 95.1728 27.9142 95.5176 28.9873C95.8703 30.0603 96.2973 30.9695 96.7989 31.7149C97.2221 32.3374 97.6374 32.874 98.0449 33.3245C98.4602 33.775 98.9343 34.0002 99.4672 34.0002C99.8277 34.0002 100.137 33.9388 100.396 33.8159C100.662 33.6931 100.941 33.5702 101.23 33.4473C101.52 33.3245 101.885 33.263 102.324 33.263C102.77 33.263 103.127 33.3245 103.393 33.4473C103.668 33.562 103.93 33.6808 104.181 33.8037C104.432 33.9183 104.753 33.9757 105.145 33.9757C105.725 33.9757 106.222 33.7463 106.638 33.2876C107.061 32.8207 107.457 32.3129 107.825 31.7641C108.24 31.1333 108.538 30.56 108.718 30.0439C108.899 29.5197 108.993 29.2412 109 29.2084C108.985 29.2002 108.859 29.1306 108.624 28.9996C108.389 28.8685 108.123 28.6637 107.825 28.3852C107.527 28.0985 107.265 27.7258 107.037 27.2671C106.81 26.8002 106.696 26.231 106.696 25.5593C106.696 24.9777 106.787 24.4781 106.967 24.0603C107.147 23.6426 107.355 23.2944 107.59 23.0159C107.825 22.7374 108.037 22.5286 108.225 22.3893C108.42 22.2419 108.53 22.16 108.554 22.1436C108.17 21.562 107.743 21.1484 107.272 20.9026C106.81 20.6487 106.379 20.4931 105.979 20.4357C105.588 20.3784 105.309 20.3497 105.145 20.3497ZM104.534 18.8753C104.8 18.5395 105.019 18.1545 105.192 17.7204C105.364 17.2781 105.45 16.8235 105.45 16.3566C105.45 16.2173 105.439 16.0985 105.415 16.0002C104.984 16.0166 104.53 16.1518 104.052 16.4057C103.581 16.6596 103.19 16.9791 102.876 17.3641C102.633 17.6589 102.414 18.0235 102.218 18.4576C102.03 18.8917 101.936 19.3422 101.936 19.8091C101.936 19.8746 101.94 19.9402 101.948 20.0057C101.955 20.063 101.963 20.104 101.971 20.1286C102.049 20.145 102.128 20.1531 102.206 20.1531C102.598 20.1531 103.009 20.0344 103.44 19.7968C103.879 19.5511 104.244 19.2439 104.534 18.8753Z"
        fill="white"
      />
      <path
        d="M125.063 28.416H129.351L130.471 32H132.039L128.055 20.272H126.407L122.423 32H123.927L125.063 28.416ZM128.423 25.44L128.983 27.232H125.431L126.007 25.44C126.439 24.096 126.807 22.88 127.175 21.472H127.239C127.623 22.832 127.991 24.096 128.423 25.44ZM134.766 23.312H133.566V35.664H135.022V32.72L134.99 31.2C135.774 31.84 136.606 32.208 137.39 32.208C139.374 32.208 141.166 30.512 141.166 27.52C141.166 24.848 139.95 23.088 137.71 23.088C136.686 23.088 135.726 23.664 134.942 24.304H134.894L134.766 23.312ZM137.15 30.992C136.574 30.992 135.806 30.768 135.022 30.08V25.52C135.87 24.736 136.606 24.32 137.358 24.32C139.006 24.32 139.646 25.616 139.646 27.536C139.646 29.696 138.606 30.992 137.15 30.992ZM144.688 23.312H143.488V35.664H144.944V32.72L144.912 31.2C145.696 31.84 146.528 32.208 147.312 32.208C149.296 32.208 151.088 30.512 151.088 27.52C151.088 24.848 149.872 23.088 147.632 23.088C146.608 23.088 145.648 23.664 144.864 24.304H144.816L144.688 23.312ZM147.072 30.992C146.496 30.992 145.728 30.768 144.944 30.08V25.52C145.792 24.736 146.528 24.32 147.28 24.32C148.928 24.32 149.568 25.616 149.568 27.536C149.568 29.696 148.528 30.992 147.072 30.992ZM153.41 19.264V32H154.866V19.264H153.41ZM161.289 32.208C162.505 32.208 163.401 31.808 164.169 31.312L163.641 30.352C163.001 30.784 162.313 31.04 161.465 31.04C159.801 31.04 158.697 29.872 158.585 28H164.441C164.489 27.792 164.505 27.488 164.505 27.168C164.505 24.688 163.257 23.088 161.049 23.088C159.033 23.088 157.129 24.848 157.129 27.664C157.129 30.544 158.985 32.208 161.289 32.208ZM163.225 26.96H158.569C158.745 25.248 159.833 24.256 161.065 24.256C162.425 24.256 163.225 25.152 163.225 26.96ZM179.044 31.408V30.336H173.172V27.632H177.764V26.576H168.932V24.256H177.428V19.888H167.604V20.96H176.148V23.2H167.636V27.632H171.844V30.336H166.004V31.408H179.044ZM197.341 31.408V30.336H191.469V27.632H196.061V26.576H187.229V24.256H195.725V19.888H185.901V20.96H194.445V23.2H185.933V27.632H190.141V30.336H184.301V31.408H197.341ZM200.444 21.424H208.988V21.792C208.988 23.568 208.988 25.712 208.412 28.64L209.724 28.784C210.268 25.68 210.284 23.616 210.284 21.792V20.368H209.676V20.352H200.444V21.424ZM212.028 31.088V30H199.052V31.088H212.028ZM224.218 29.328H225.53V18.848H224.218V29.328ZM221.578 23.36C221.578 21.296 219.946 19.84 217.818 19.84C215.69 19.84 214.09 21.296 214.09 23.36C214.09 25.44 215.69 26.912 217.818 26.912C219.946 26.912 221.578 25.44 221.578 23.36ZM215.37 23.36C215.37 21.968 216.41 20.976 217.818 20.976C219.242 20.976 220.298 21.968 220.298 23.36C220.298 24.784 219.242 25.776 217.818 25.776C216.41 25.776 215.37 24.784 215.37 23.36ZM225.962 32.864V31.792H217.61V28.256H216.298V32.864H225.962Z"
        fill="white"
      />
    </svg>