<svg width="28" height="28" viewBox="0 0 28 28" fill="none" xmlns="http://www.w3.org/2000/svg">
<g filter="url(#filter0_b_556_10972)">
<path d="M14.7578 4.57448L22.4001 10.9735C22.8368 11.3064 23.0915 11.8612 23.0552 12.416V22.107C23.0552 23.1427 22.2181 23.9934 21.1992 23.9934H17.1031C16.6062 23.9934 16.2035 23.5906 16.2035 23.0938V19.4956C16.2035 18.9987 15.8007 18.596 15.3039 18.596H11.7054C11.2085 18.596 10.8058 18.9987 10.8058 19.4956V23.0938C10.8058 23.5906 10.403 23.9934 9.90615 23.9934H5.91458C4.89561 23.9934 4.05859 23.1427 4.05859 22.107V12.453C4.05859 11.8612 4.31334 11.3434 4.75004 10.9735L12.3923 4.57448C13.0838 3.98266 14.0664 3.98266 14.7578 4.57448Z" fill="#FF9E0C"/>
</g>
<defs>
<filter id="filter0_b_556_10972" x="-4.57759" y="-4.50556" width="36.2724" height="37.1352" filterUnits="userSpaceOnUse" color-interpolation-filters="sRGB">
<feFlood flood-opacity="0" result="BackgroundImageFix"/>
<feGaussianBlur in="BackgroundImageFix" stdDeviation="4.31809"/>
<feComposite in2="SourceAlpha" operator="in" result="effect1_backgroundBlur_556_10972"/>
<feBlend mode="normal" in="SourceGraphic" in2="effect1_backgroundBlur_556_10972" result="shape"/>
</filter>
</defs>
</svg>
