<svg width="28" height="28" viewBox="0 0 28 28" fill="none" xmlns="http://www.w3.org/2000/svg">
<path fill-rule="evenodd" clip-rule="evenodd" d="M12.9901 22.3684C13.6396 22.7996 14.4772 22.7996 15.1257 22.3684C17.1882 21.0005 21.6787 17.7307 23.6134 14.0719C26.1635 9.24501 23.1688 4.43091 19.2096 4.43091C16.9531 4.43091 15.5957 5.61557 14.8449 6.63366C14.7547 6.75835 14.6364 6.85983 14.4997 6.9298C14.363 6.99977 14.2118 7.03624 14.0584 7.03624C13.905 7.03624 13.7538 6.99977 13.6171 6.9298C13.4804 6.85983 13.3621 6.75835 13.2719 6.63366C12.5211 5.61557 11.1636 4.43091 8.90714 4.43091C4.94802 4.43091 1.95332 9.24501 4.50432 14.0719C6.43708 17.7307 10.9296 21.0005 12.9901 22.3684Z" fill="#FF9E0C"/>
</svg>
