<svg width="28" height="28" viewBox="0 0 28 28" fill="none" xmlns="http://www.w3.org/2000/svg">
<path fill-rule="evenodd" clip-rule="evenodd" d="M18.7189 9.26931C18.7189 9.89306 18.5962 10.5107 18.3575 11.087C18.1189 11.6633 17.7691 12.187 17.3281 12.6281C16.8871 13.0692 16.3636 13.4191 15.7874 13.6578C15.2112 13.8966 14.5936 14.0195 13.9698 14.0196C12.7102 14.0197 11.5021 13.5194 10.6113 12.6287C9.72049 11.7381 9.21997 10.53 9.21985 9.27028C9.21978 8.64653 9.34257 8.02888 9.58119 7.45258C9.81982 6.87629 10.1696 6.35264 10.6106 5.91154C11.5012 5.02069 12.7092 4.52015 13.9689 4.52002C15.2285 4.51989 16.4366 5.02019 17.3274 5.91085C18.2182 6.80152 18.7187 8.00959 18.7189 9.26931ZM13.9694 15.4726C7.12986 15.4726 4.46936 19.8256 4.46936 21.8506C4.46936 23.8748 10.1329 24.4143 13.9694 24.4143C17.8058 24.4143 23.4694 23.8748 23.4694 21.8506C23.4694 19.8256 20.8089 15.4726 13.9694 15.4726Z" fill="#BDBEC7"/>
</svg>
