<svg width="28" height="28" viewBox="0 0 28 28" fill="none" xmlns="http://www.w3.org/2000/svg">
<path d="M5.06933 23.0452C4.73375 23.1012 4.44282 22.8102 4.49875 22.4747L5.35014 17.3663C5.36713 17.2644 5.41554 17.1703 5.48861 17.0973L16.4503 6.13557L21.4084 11.0937L10.4467 22.0554C10.3736 22.1284 10.2796 22.1769 10.1776 22.1938L5.06933 23.0452Z" fill="#FF9E0C"/>
<path d="M22.8108 9.69131L23.3494 9.15269C24.0069 8.4952 24.3763 7.60346 24.3763 6.67364C24.3763 5.74381 24.0069 4.85207 23.3494 4.19458C22.6919 3.5371 21.8002 3.16772 20.8703 3.16772C19.9405 3.16772 19.0488 3.5371 18.3913 4.19458L17.8527 4.73321L22.8108 9.69131Z" fill="#FF9E0C"/>
</svg>
