<svg width="20" height="21" viewBox="0 0 20 21" fill="none" xmlns="http://www.w3.org/2000/svg">
<g clip-path="url(#clip0_575_1851)">
<path d="M10 11.3333C10.4603 11.3333 10.8334 10.9602 10.8334 10.5C10.8334 10.0398 10.4603 9.66667 10 9.66667C9.53978 9.66667 9.16669 10.0398 9.16669 10.5C9.16669 10.9602 9.53978 11.3333 10 11.3333Z" fill="#4C5061" stroke="#4C5061" stroke-width="2" stroke-linecap="round" stroke-linejoin="round"/>
<path d="M10 17.1667C10.4603 17.1667 10.8334 16.7936 10.8334 16.3333C10.8334 15.8731 10.4603 15.5 10 15.5C9.53978 15.5 9.16669 15.8731 9.16669 16.3333C9.16669 16.7936 9.53978 17.1667 10 17.1667Z" fill="#4C5061" stroke="#4C5061" stroke-width="2" stroke-linecap="round" stroke-linejoin="round"/>
<path d="M10 5.5C10.4603 5.5 10.8334 5.1269 10.8334 4.66667C10.8334 4.20643 10.4603 3.83333 10 3.83333C9.53978 3.83333 9.16669 4.20643 9.16669 4.66667C9.16669 5.1269 9.53978 5.5 10 5.5Z" fill="#4C5061" stroke="#4C5061" stroke-width="2" stroke-linecap="round" stroke-linejoin="round"/>
</g>
<defs>
<clipPath id="clip0_575_1851">
<rect width="20" height="20" fill="white" transform="translate(0 0.5)"/>
</clipPath>
</defs>
</svg>
