<svg width="28" height="29" viewBox="0 0 28 29" fill="none" xmlns="http://www.w3.org/2000/svg">
<path d="M7.27614 19.0384C7.40875 19.0384 7.53592 18.9857 7.62969 18.8919L18.9621 7.55943C19.1574 7.36417 19.1574 7.04759 18.9621 6.85233L18.0193 5.90952C17.8241 5.71426 17.5075 5.71426 17.3122 5.90952L5.97978 17.242C5.88601 17.3358 5.83333 17.463 5.83333 17.5956V18.5384C5.83333 18.8145 6.05719 19.0384 6.33333 19.0384H7.27614ZM8.59619 21.2253C8.50242 21.319 8.37525 21.3717 8.24264 21.3717H4C3.72386 21.3717 3.5 21.1479 3.5 20.8717V16.6291C3.5 16.4965 3.55268 16.3693 3.64645 16.2756L16.8408 3.08109C17.2965 2.62548 18.0351 2.62548 18.4907 3.08109L21.7906 6.38092C22.2462 6.83654 22.2462 7.57522 21.7906 8.03084L8.59619 21.2253ZM3.5 24.205C3.5 23.9289 3.72386 23.705 4 23.705H24C24.2761 23.705 24.5 23.9289 24.5 24.205V25.5384C24.5 25.8145 24.2761 26.0384 24 26.0384H4C3.72386 26.0384 3.5 25.8145 3.5 25.5384V24.205Z" fill="#4C5061"/>
</svg>
