<svg width="138" height="135" viewBox="0 0 138 135" fill="none" xmlns="http://www.w3.org/2000/svg">
<g filter="url(#filter0_f_3442_13587)">
<ellipse cx="44.0172" cy="19.1117" rx="44.0172" ry="19.1117" transform="matrix(-0.991874 0.127226 0.127226 0.991874 110.268 65.0527)" fill="#FF9E0C" fill-opacity="0.5"/>
</g>
<g clip-path="url(#clip0_3442_13587)">
<path d="M77.8307 54.2643L43.5109 19.943C39.8982 16.2623 33.901 16.1543 30.1763 19.7463C28.8779 20.9463 27.9885 22.5118 27.5707 24.1633L15.0147 71.3239C14.35 76.4151 18.0269 81.1031 23.2001 81.7382C24.2278 81.8397 25.2865 81.7998 26.3006 81.5943L73.4223 69.0275C75.802 68.2563 77.7398 66.6126 78.9019 64.3938C80.0622 62.1686 80.2738 59.6228 79.5017 57.2676C79.162 56.2621 78.6717 55.3376 77.8307 54.2643Z" fill="url(#paint0_linear_3442_13587)"/>
<g filter="url(#filter1_b_3442_13587)">
<path d="M112.74 86.6194L81.3372 32.2661C78.0544 26.4598 70.5816 24.3251 64.7071 27.5741C62.6769 28.6414 61.0355 30.3022 59.9557 32.2277L28.3369 87.0036C25.7884 93.1472 28.812 100.234 35.0753 102.753C36.328 103.223 37.667 103.526 39.006 103.607H102.244C105.483 103.436 108.464 102.028 110.667 99.641C112.87 97.2458 113.993 94.1335 113.82 90.9314C113.733 89.561 113.431 88.2417 112.74 86.6194Z" fill="#F89F1B" fill-opacity="0.3"/>
<path d="M80.9019 32.5122L80.9043 32.5162L112.292 86.8431C112.954 88.4043 113.239 89.6603 113.321 90.9604C113.486 94.0256 112.411 97.0058 110.299 99.3025C108.186 101.59 105.333 102.94 102.23 103.107H39.0213C37.7432 103.028 36.4604 102.738 35.2564 102.287C29.2595 99.8721 26.3696 93.0974 28.7864 87.225L60.3887 32.4776L60.3887 32.4777L60.3918 32.4723C61.4269 30.6265 62.9996 29.0367 64.9398 28.0166L64.9398 28.0167L64.9491 28.0116C70.5832 24.8956 77.7539 26.9442 80.9019 32.5122Z" stroke="url(#paint1_linear_3442_13587)" stroke-linecap="round" stroke-linejoin="round"/>
</g>
<g filter="url(#filter2_b_3442_13587)">
<mask id="path-5-inside-1_3442_13587" fill="white">
<path fill-rule="evenodd" clip-rule="evenodd" d="M70.3399 74.5271C72.4187 74.5271 74.1077 72.5917 74.1077 70.275V56.6209C74.1077 54.2994 72.4187 52.4219 70.3399 52.4219C68.2611 52.4219 66.5288 54.2994 66.5288 56.6209V70.275C66.5288 72.5917 68.2611 74.5271 70.3399 74.5271ZM66.5288 82.1082C66.5288 84.1697 68.2611 85.8956 70.3399 85.8956C72.4187 85.8956 74.1077 84.1697 74.1077 82.0609C74.1077 79.9994 72.4187 78.3166 70.3399 78.3166C68.2611 78.3166 66.5288 80.0381 66.5288 82.1082Z"/>
</mask>
<path fill-rule="evenodd" clip-rule="evenodd" d="M70.3399 74.5271C72.4187 74.5271 74.1077 72.5917 74.1077 70.275V56.6209C74.1077 54.2994 72.4187 52.4219 70.3399 52.4219C68.2611 52.4219 66.5288 54.2994 66.5288 56.6209V70.275C66.5288 72.5917 68.2611 74.5271 70.3399 74.5271ZM66.5288 82.1082C66.5288 84.1697 68.2611 85.8956 70.3399 85.8956C72.4187 85.8956 74.1077 84.1697 74.1077 82.0609C74.1077 79.9994 72.4187 78.3166 70.3399 78.3166C68.2611 78.3166 66.5288 80.0381 66.5288 82.1082Z" fill="white"/>
<path d="M73.8551 70.275C73.8551 72.483 72.2503 74.2745 70.3399 74.2745V74.7798C72.5871 74.7798 74.3604 72.7005 74.3604 70.275H73.8551ZM73.8551 56.6209V70.275H74.3604V56.6209H73.8551ZM70.3399 52.6745C72.2543 52.6745 73.8551 54.4127 73.8551 56.6209H74.3604C74.3604 54.1861 72.5831 52.1692 70.3399 52.1692V52.6745ZM66.7814 56.6209C66.7814 54.4166 68.422 52.6745 70.3399 52.6745V52.1692C68.1003 52.1692 66.2761 54.1822 66.2761 56.6209H66.7814ZM66.7814 70.275V56.6209H66.2761V70.275H66.7814ZM70.3399 74.2745C68.426 74.2745 66.7814 72.479 66.7814 70.275H66.2761C66.2761 72.7044 68.0962 74.7798 70.3399 74.7798V74.2745ZM70.3399 85.6429C68.3993 85.6429 66.7814 84.0289 66.7814 82.1082H66.2761C66.2761 84.3106 68.1229 86.1482 70.3399 86.1482V85.6429ZM73.8551 82.0609C73.8551 84.0347 72.2747 85.6429 70.3399 85.6429V86.1482C72.5627 86.1482 74.3604 84.3048 74.3604 82.0609H73.8551ZM70.3399 78.5692C72.2805 78.5692 73.8551 80.1402 73.8551 82.0609H74.3604C74.3604 79.8586 72.5569 78.064 70.3399 78.064V78.5692ZM66.7814 82.1082C66.7814 80.179 68.3993 78.5692 70.3399 78.5692V78.064C68.1229 78.064 66.2761 79.8973 66.2761 82.1082H66.7814Z" fill="url(#paint2_linear_3442_13587)" mask="url(#path-5-inside-1_3442_13587)"/>
</g>
</g>
<defs>
<filter id="filter0_f_3442_13587" x="0.68025" y="45.2063" width="136.72" height="88.8061" filterUnits="userSpaceOnUse" color-interpolation-filters="sRGB">
<feFlood flood-opacity="0" result="BackgroundImageFix"/>
<feBlend mode="normal" in="SourceGraphic" in2="BackgroundImageFix" result="shape"/>
<feGaussianBlur stdDeviation="12.3158" result="effect1_foregroundBlur_3442_13587"/>
</filter>
<filter id="filter1_b_3442_13587" x="12.2747" y="10.8948" width="116.72" height="107.87" filterUnits="userSpaceOnUse" color-interpolation-filters="sRGB">
<feFlood flood-opacity="0" result="BackgroundImageFix"/>
<feGaussianBlur in="BackgroundImageFix" stdDeviation="7.57895"/>
<feComposite in2="SourceAlpha" operator="in" result="effect1_backgroundBlur_3442_13587"/>
<feBlend mode="normal" in="SourceGraphic" in2="effect1_backgroundBlur_3442_13587" result="shape"/>
</filter>
<filter id="filter2_b_3442_13587" x="57.0551" y="42.9482" width="26.5263" height="52.422" filterUnits="userSpaceOnUse" color-interpolation-filters="sRGB">
<feFlood flood-opacity="0" result="BackgroundImageFix"/>
<feGaussianBlur in="BackgroundImageFix" stdDeviation="4.73684"/>
<feComposite in2="SourceAlpha" operator="in" result="effect1_backgroundBlur_3442_13587"/>
<feBlend mode="normal" in="SourceGraphic" in2="effect1_backgroundBlur_3442_13587" result="shape"/>
</filter>
<linearGradient id="paint0_linear_3442_13587" x1="47" y1="23.5" x2="2.7993" y2="79.4055" gradientUnits="userSpaceOnUse">
<stop stop-color="#FFD08A"/>
<stop offset="0.406281" stop-color="#F59300"/>
<stop offset="1" stop-color="#F59300"/>
</linearGradient>
<linearGradient id="paint1_linear_3442_13587" x1="41.1868" y1="35.0879" x2="89.28" y2="101.45" gradientUnits="userSpaceOnUse">
<stop stop-color="white" stop-opacity="0.25"/>
<stop offset="1" stop-color="white" stop-opacity="0"/>
</linearGradient>
<linearGradient id="paint2_linear_3442_13587" x1="67.7352" y1="56.3216" x2="79.0926" y2="59.5065" gradientUnits="userSpaceOnUse">
<stop stop-color="white" stop-opacity="0.25"/>
<stop offset="1" stop-color="white" stop-opacity="0"/>
</linearGradient>
<clipPath id="clip0_3442_13587">
<rect width="99.1579" height="86.5263" fill="white" transform="translate(14.7368 17.0527)"/>
</clipPath>
</defs>
</svg>
