<svg width="63" height="32" viewBox="0 0 63 32" fill="none" xmlns="http://www.w3.org/2000/svg">
<path d="M6.20203 10.968C9.65803 10.968 11.29 12.84 11.29 16.776C11.29 17.376 11.266 18.288 11.17 18.888H4.95403C5.00203 20.112 5.45803 21 6.92203 21C7.76203 21 8.86603 20.736 10.114 20.28L10.882 22.968C9.53803 23.76 8.05003 24.288 6.13003 24.288C2.65003 24.288 0.538031 22.44 0.538031 17.688C0.538031 13.128 2.60203 10.968 6.20203 10.968ZM6.25003 13.872C5.36203 13.872 4.95403 14.784 4.95403 16.344H7.30603C7.30603 14.712 7.06603 13.872 6.25003 13.872ZM17.4442 10.944C20.7802 10.944 22.3882 12.36 22.3882 15.504V24H18.9802L18.6202 22.608C17.9962 23.712 16.7962 24.288 15.4762 24.288C13.4602 24.288 12.0202 23.136 12.0202 20.544C12.0202 18.384 13.3162 16.56 16.7482 16.56C17.3002 16.56 17.7322 16.608 18.1402 16.656V15.888C18.1402 14.808 17.7322 14.256 16.7242 14.256C15.5962 14.256 14.5402 14.52 13.4602 15.024L12.5242 12.264C13.9882 11.544 15.8122 10.944 17.4442 10.944ZM17.4202 18.768C16.5562 18.768 16.0522 19.224 16.0522 20.232C16.0522 21.072 16.4362 21.432 16.9882 21.432C17.6122 21.432 18.1402 20.88 18.1402 20.136V18.864C17.9722 18.792 17.7082 18.768 17.4202 18.768ZM29.0257 7.416V11.256H31.0897V14.4H29.0257V20.064C29.0257 20.688 29.2177 20.928 29.8657 20.928C30.2257 20.928 30.5857 20.856 30.8737 20.784L31.2577 23.784C30.3457 24.096 29.3857 24.288 28.3537 24.288C25.7137 24.288 24.8017 23.088 24.8017 20.952V14.4H23.3377V11.808L24.8497 11.304L25.1377 7.416H29.0257ZM37.5614 10.968C41.0174 10.968 42.6494 12.84 42.6494 16.776C42.6494 17.376 42.6254 18.288 42.5294 18.888H36.3134C36.3614 20.112 36.8174 21 38.2814 21C39.1214 21 40.2254 20.736 41.4734 20.28L42.2414 22.968C40.8974 23.76 39.4094 24.288 37.4894 24.288C34.0094 24.288 31.8974 22.44 31.8974 17.688C31.8974 13.128 33.9614 10.968 37.5614 10.968ZM37.6094 13.872C36.7214 13.872 36.3134 14.784 36.3134 16.344H38.6654C38.6654 14.712 38.4254 13.872 37.6094 13.872ZM49.9064 10.968C50.3864 10.968 50.7704 11.088 51.1784 11.304L50.9144 15.192C50.5544 15.12 50.3384 15.096 49.9544 15.096C49.3064 15.096 48.6344 15.384 48.1544 15.888V24H43.9064V11.256H47.1704L47.6264 12.792C48.1544 11.736 48.9224 10.968 49.9064 10.968ZM58.6375 11.256H62.9575L59.1895 24C58.1095 27.648 57.1975 29.016 54.4855 29.016C53.3575 29.016 52.3495 28.824 51.7495 28.656L52.1335 25.584C52.5175 25.68 53.0935 25.752 53.6455 25.752C54.2695 25.752 54.6775 25.44 54.8935 24.648L55.0375 24L51.3655 11.256H55.7575L57.1735 19.824L58.6375 11.256Z" fill="#202330"/>
</svg>
