<svg width="28" height="29" viewBox="0 0 28 29" fill="none" xmlns="http://www.w3.org/2000/svg">
<path fill-rule="evenodd" clip-rule="evenodd" d="M12.7786 24.9014C13.5209 25.3918 14.4782 25.3918 15.2193 24.9014C17.5764 23.3456 22.7085 19.6267 24.9196 15.4652C27.8339 9.97538 24.4114 4.5 19.8867 4.5C17.3078 4.5 15.7565 5.84739 14.8983 7.00532C14.7953 7.14714 14.6601 7.26256 14.5039 7.34214C14.3477 7.42172 14.1748 7.4632 13.9995 7.4632C13.8242 7.4632 13.6514 7.42172 13.4952 7.34214C13.339 7.26256 13.2038 7.14714 13.1007 7.00532C12.2426 5.84739 10.6912 4.5 8.11238 4.5C3.58767 4.5 0.165153 9.97538 3.08059 15.4652C5.28945 19.6267 10.4238 23.3456 12.7786 24.9014Z" fill="#F6444F" stroke="#F6444F" stroke-width="1.84463"/>
</svg>
